# xmcd
#
# Track frame offsets: 
#        187
#        18822
#        38850
#        63627
#
# Disc length: 1111 seconds
#
# Revision: 1
# Processed by: cddbd v1.5.2PL0 Copyright (c) Steve Scherf et al.
# Submitted via: ExactAudioCopy v0.95b4
#
DISCID=2b045504
DTITLE=Michael Kiske - The Calling (EP)
DYEAR=1996
DGENRE=Heavy Metal
TTITLE0=The Calling
TTITLE1=Somebody Somewhere
TTITLE2=Rock 'N' Roll's Dead
TTITLE3=When You're Down On Your Knees That's When You're Closet To He
TTITLE3=aven
EXTD=YEAR: 1996
EXTT0=
EXTT1=
EXTT2=
EXTT3=
PLAYORDER=
